TITLE ""
FILE "Step3_Track53.mp3" MP3
  TRACK 01 AUDIO
    TITLE "Step3_Track53_01"
    INDEX 01 00:00:00
  TRACK 02 AUDIO
    TITLE "Step3_Track53_02"
    INDEX 01 00:00:24
  TRACK 03 AUDIO
    TITLE "Step3_Track53_03"
    INDEX 01 00:02:01
  TRACK 04 AUDIO
    TITLE "Step3_Track53_04"
    INDEX 01 00:02:54
  TRACK 05 AUDIO
    TITLE "Step3_Track53_05"
    INDEX 01 00:03:46
  TRACK 06 AUDIO
    TITLE "Step3_Track53_06"
    INDEX 01 00:03:62
  TRACK 07 AUDIO
    TITLE "Step3_Track53_07"
    INDEX 01 00:06:34
  TRACK 08 AUDIO
    TITLE "Step3_Track53_08"
    INDEX 01 00:06:54
  TRACK 09 AUDIO
    TITLE "Step3_Track53_09"
    INDEX 01 00:07:51
  TRACK 10 AUDIO
    TITLE "Step3_Track53_10"
    INDEX 01 00:07:53
  TRACK 11 AUDIO
    TITLE "Step3_Track53_11"
    INDEX 01 00:10:22
  TRACK 12 AUDIO
    TITLE "Step3_Track53_12"
    INDEX 01 00:10:44
  TRACK 13 AUDIO
    TITLE "Step3_Track53_13"
    INDEX 01 00:11:47
  TRACK 14 AUDIO
    TITLE "Step3_Track53_14"
    INDEX 01 00:11:51
  TRACK 15 AUDIO
    TITLE "Step3_Track53_15"
    INDEX 01 00:14:52
  TRACK 16 AUDIO
    TITLE "Step3_Track53_16"
    INDEX 01 00:15:08
  TRACK 17 AUDIO
    TITLE "Step3_Track53_17"
    INDEX 01 00:16:09
  TRACK 18 AUDIO
    TITLE "Step3_Track53_18"
    INDEX 01 00:16:13
  TRACK 19 AUDIO
    TITLE "Step3_Track53_19"
    INDEX 01 00:19:04
  TRACK 20 AUDIO
    TITLE "Step3_Track53_20"
    INDEX 01 00:19:23
  TRACK 21 AUDIO
    TITLE "Step3_Track53_21"
    INDEX 01 00:20:17
  TRACK 22 AUDIO
    TITLE "Step3_Track53_22"
    INDEX 01 00:20:25
  TRACK 23 AUDIO
    TITLE "Step3_Track53_23"
    INDEX 01 00:22:75
  TRACK 24 AUDIO
    TITLE "Step3_Track53_24"
    INDEX 01 00:23:13
  TRACK 25 AUDIO
    TITLE "Step3_Track53_25"
    INDEX 01 00:24:19
  TRACK 26 AUDIO
    TITLE "Step3_Track53_26"
    INDEX 01 00:24:26
  TRACK 27 AUDIO
    TITLE "Step3_Track53_27"
    INDEX 01 00:27:01
  TRACK 28 AUDIO
    TITLE "Step3_Track53_28"
    INDEX 01 00:27:21
  TRACK 29 AUDIO
    TITLE "Step3_Track53_29"
    INDEX 01 00:28:22
  TRACK 30 AUDIO
    TITLE "Step3_Track53_30"
    INDEX 01 00:28:24
  TRACK 31 AUDIO
    TITLE "Step3_Track53_31"
    INDEX 01 00:30:15
  TRACK 32 AUDIO
    TITLE "Step3_Track53_32"
    INDEX 01 00:30:54
  TRACK 33 AUDIO
    TITLE "Step3_Track53_33"
    INDEX 01 00:31:34
  TRACK 34 AUDIO
    TITLE "Step3_Track53_34"
    INDEX 01 00:31:50
  TRACK 35 AUDIO
    TITLE "Step3_Track53_35"
    INDEX 01 00:34:01
  TRACK 36 AUDIO
    TITLE "Step3_Track53_36"
    INDEX 01 00:34:27
  TRACK 37 AUDIO
    TITLE "Step3_Track53_37"
    INDEX 01 00:35:28
  TRACK 38 AUDIO
    TITLE "Step3_Track53_38"
    INDEX 01 00:35:30
  TRACK 39 AUDIO
    TITLE "Step3_Track53_39"
    INDEX 01 00:37:66
  TRACK 40 AUDIO
    TITLE "Step3_Track53_40"
    INDEX 01 00:38:13
  TRACK 41 AUDIO
    TITLE "Step3_Track53_41"
    INDEX 01 00:39:04
  TRACK 42 AUDIO
    TITLE "Step3_Track53_42"
    INDEX 01 00:39:06
  TRACK 43 AUDIO
    TITLE "Step3_Track53_43"
    INDEX 01 00:41:29
